Coordinates
version=1
nRows=29
nColumns=24
inDegrees=yes

Units are S.I. units (second, meters, Newtons, ...)
Angles are in degrees.

endheader
time	pelvis_tilt	pelvis_list	pelvis_rotation	pelvis_tx	pelvis_ty	pelvis_tz	hip_flexion_r	hip_adduction_r	hip_rotation_r	knee_angle_r	ankle_angle_r	subtalar_angle_r	mtp_angle_r	hip_flexion_l	hip_adduction_l	hip_rotation_l	knee_angle_l	ankle_angle_l	subtalar_angle_l	mtp_angle_l	lumbar_extension	lumbar_bending	lumbar_rotation
      4.33500000	     14.69247153	     -5.70019616	      6.79778604	     -0.49769441	      0.92537210	     -0.26752832	    -30.61045447	      9.07003201	      1.35840486	    -11.44293994	     22.14159905	      8.40931840	      0.00000000	      7.12943835	     -5.60902821	      9.17193263	     -6.17287199	     10.17245992	      1.75702936	      0.00000000	    -31.14532551	      6.71501222	      2.28945272
      4.34000000	     14.70020765	     -5.35537935	      6.77616400	     -0.49096238	      0.92508801	     -0.26848868	    -30.71317329	      8.66054786	      1.16163855	    -12.23075416	     21.97517300	      8.87456023	      0.00000000	      6.98477957	     -5.17309246	      9.34794082	     -6.35884559	     10.01450675	      1.46695851	      0.00000000	    -31.12374132	      6.36917838	      2.15121611
      4.34500000	     14.66030450	     -4.95202184	      6.73083383	     -0.48408362	      0.92483556	     -0.26940457	    -30.76118158	      8.18650514	      0.97796171	    -13.05081788	     21.75084864	      9.30893850	      0.00000000	      6.87418402	     -4.67037725	      9.45502834	     -6.63636425	      9.89295685	      1.25243741	      0.00000000	    -31.03023332	      5.94584856	      1.97046531
      4.35000000	     14.70389726	     -4.49641695	      6.74023575	     -0.47727154	      0.92467990	     -0.27046479	    -30.86422681	      7.68066447	      0.61588714	    -13.93862541	     21.52615180	      9.87700315	      0.00000000	      6.68230374	     -4.10139813	      9.62035120	     -6.99871358	      9.79169970	      0.95728650	      0.00000000	    -31.04528431	      5.51077572	      1.74367777
      4.35500000	     14.74729177	     -3.99556794	      6.75258537	     -0.47041767	      0.92456801	     -0.27153019	    -30.95395670	      7.13712077	      0.28179332	    -14.86309315	     21.27470326	     10.43408935	      0.00000000	      6.48963869	     -3.47945000	      9.81524448	     -7.45132566	      9.70614051	      0.68891376	      0.00000000	    -31.05774450	      5.02793642	      1.49693597
      4.36000000	     14.74706741	     -3.47546584	      6.73654625	     -0.46350711	      0.92446935	     -0.27257853	    -30.97085005	      6.55704235	     -0.04463281	    -15.85021630	     20.96619684	     10.97334360	      0.00000000	      6.33432853	     -2.82976867	      9.95800599	     -7.96700088	      9.63638439	      0.43286723	      0.00000000	    -31.02124972	      4.50912982	      1.26161959
      4.36500000	     14.70475998	     -2.94979892	      6.68899403	     -0.45651416	      0.92439929	     -0.27360600	    -30.91463409	      5.94995634	     -0.36239964	    -16.89899535	     20.57310779	     11.49922564	      0.00000000	      6.20522093	     -2.17068285	     10.03719546	     -8.51745089	      9.56764114	      0.19710340	      0.00000000	    -30.92542584	      3.97060101	      1.02422876
      4.37000000	     14.71557230	     -2.37946452	      6.70108240	     -0.44957813	      0.92436162	     -0.27474818	    -30.89142256	      5.32489286	     -0.77693733	    -17.99575479	     20.19305048	     12.10059550	      0.00000000	      6.03094305	     -1.45321710	     10.23104404	     -9.13733840	      9.51813248	     -0.08481731	      0.00000000	    -30.90205656	      3.41821365	      0.77394336
      4.37500000	     14.62124982	     -1.82703531	      6.62203436	     -0.44250165	      0.92431077	     -0.27569238	    -30.71872993	      4.67852415	     -1.04726811	    -19.16963918	     19.70991257	     12.51274394	      0.00000000	      5.93390151	     -0.76657970	     10.25803511	     -9.75071053	      9.49058574	     -0.23198396	      0.00000000	    -30.74297812	      2.81388608	      0.57511999
      4.38000000	     14.62522219	     -1.25392562	      6.62617702	     -0.43554338	      0.92433221	     -0.27694472	    -30.62624444	      4.01810711	     -1.52140120	    -20.37740975	     19.20546474	     13.23917768	      0.00000000	      5.74989722	     -0.03105557	     10.44842445	    -10.42440696	      9.43997002	     -0.57995405	      0.00000000	    -30.71112087	      2.28321888	      0.29965783
      4.38500000	     14.55572539	     -0.67957780	      6.57439555	     -0.42848392	      0.92433963	     -0.27802564	    -30.41871504	      3.33749666	     -1.89807726	    -21.65663933	     18.62456160	     13.76451205	      0.00000000	      5.60867756	      0.69092766	     10.52184830	    -11.06670174	      9.41466465	     -0.78165320	      0.00000000	    -30.58637044	      1.68702256	      0.08946285
      4.39000000	     14.46583333	     -0.11070124	      6.50418429	     -0.42138488	      0.92437148	     -0.27908215	    -30.16126744	      2.64786891	     -2.23353305	    -22.97417113	     17.96056323	     14.26130336	      0.00000000	      5.47568373	      1.40553085	     10.58143367	    -11.71310028	      9.39091046	     -0.94958819	      0.00000000	    -30.43102250	      1.08485631	     -0.08423821
      4.39500000	     14.38923165	      0.44832697	      6.44567819	     -0.41434147	      0.92441524	     -0.28021201	    -29.87035216	      1.95263109	     -2.63924724	    -24.36639457	     17.26634571	     14.80857604	      0.00000000	      5.31214004	      2.11515078	     10.66464252	    -12.33056717	      9.38044488	     -1.19155204	      0.00000000	    -30.30056954	      0.51207397	     -0.26635619
      4.40000000	     14.31407771	      0.99462374	      6.40162206	     -0.40729546	      0.92450037	     -0.28137324	    -29.55416167	      1.26835061	     -3.03465262	    -25.78336816	     16.46869976	     15.33240812	      0.00000000	      5.13280898	      2.81191116	     10.78298278	    -12.93179471	      9.35393959	     -1.43304979	      0.00000000	    -30.16887306	     -0.04245410	     -0.43511740
      4.40500000	     14.20556628	      1.53817171	      6.30175532	     -0.40018486	      0.92459407	     -0.28238768	    -29.16472848	      0.56406828	     -3.34254865	    -27.24884046	     15.61717184	     15.71144624	      0.00000000	      4.95876657	      3.48789008	     10.80333384	    -13.48828395	      9.38230665	     -1.55063780	      0.00000000	    -29.98980452	     -0.63545480	     -0.56720641
      4.41000000	     14.09892370	      2.05946949	      6.19671555	     -0.39314526	      0.92469710	     -0.28346166	    -28.72771619	     -0.14410937	     -3.67330942	    -28.77379030	     14.73988433	     16.11531824	      0.00000000	      4.76784783	      4.14590498	     10.84019078	    -14.00466124	      9.40976203	     -1.74964280	      0.00000000	    -29.82061563	     -1.19669473	     -0.67200257
      4.41500000	     13.98704584	      2.56243520	      6.08664229	     -0.38612351	      0.92482804	     -0.28450033	    -28.24583418	     -0.84337352	     -3.98836762	    -30.33156509	     13.79810748	     16.44606813	      0.00000000	      4.56065506	      4.77803431	     10.87751093	    -14.47168352	      9.44884811	     -1.94329689	      0.00000000	    -29.64622611	     -1.74400388	     -0.75981307
      4.42000000	     13.87032267	      3.05296569	      5.95928375	     -0.37911138	      0.92498527	     -0.28551677	    -27.72138771	     -1.54487675	     -4.26559971	    -31.91741300	     12.80927676	     16.68836599	      0.00000000	      4.33658292	      5.39123696	     10.90478861	    -14.88965949	      9.50885168	     -2.10810335	      0.00000000	    -29.46464842	     -2.28590726	     -0.82665759
      4.42500000	     13.75802114	      3.52363218	      5.82734409	     -0.37210733	      0.92519248	     -0.28646901	    -27.16693994	     -2.22622581	     -4.49958592	    -33.51600026	     11.75430592	     16.83433069	      0.00000000	      4.08079158	      5.97167633	     10.94227900	    -15.24257707	      9.58277374	     -2.23673730	      0.00000000	    -29.28458364	     -2.82054286	     -0.87258878
      4.43000000	     13.63099969	      3.98117842	      5.66203646	     -0.36516144	      0.92538464	     -0.28740963	    -26.54670994	     -2.92813251	     -4.72538211	    -35.16006489	     10.74204542	     16.91112944	      0.00000000	      3.82559604	      6.53803046	     10.93752837	    -15.54856426	      9.67786676	     -2.41595448	      0.00000000	    -29.09422592	     -3.34642548	     -0.89084115
      4.43500000	     13.50166995	      4.41179618	      5.48410155	     -0.35826240	      0.92561167	     -0.28831799	    -25.88214547	     -3.61185157	     -4.90828542	    -36.81564120	      9.70107303	     16.87835112	      0.00000000	      3.55342408	      7.06944009	     10.92711836	    -15.79585710	      9.79250683	     -2.57572870	      0.00000000	    -28.90316653	     -3.85080328	     -0.88180933
      4.44000000	     13.37194003	      4.82290132	      5.28824634	     -0.35139211	      0.92586621	     -0.28918487	    -25.17969374	     -4.28473146	     -5.04915253	    -38.47693916	      8.66646245	     16.73362474	      0.00000000	      3.26178679	      7.57318551	     10.91008124	    -15.98639121	      9.92413983	     -2.71939585	      0.00000000	    -28.70790707	     -4.33704235	     -0.85202123
      4.44500000	     13.23751841	      5.20288621	      5.06207444	     -0.34457772	      0.92613922	     -0.29002090	    -24.42660310	     -4.94801903	     -5.15651998	    -40.14708445	      7.66481580	     16.48564501	      0.00000000	      2.96116831	      8.03962504	     10.85972220	    -16.12446577	     10.07614851	     -2.86527987	      0.00000000	    -28.50392481	     -4.79878489	     -0.78857368
      4.45000000	     13.08473175	      5.54738839	      4.80270976	     -0.33780704	      0.92643209	     -0.29078345	    -23.60606634	     -5.58726630	     -5.18736927	    -41.81959852	      6.68859559	     16.15042463	      0.00000000	      2.66291659	      8.46160285	     10.78454889	    -16.20084353	     10.24201878	     -2.99274184	      0.00000000	    -28.27659452	     -5.24324774	     -0.67034370
      4.45500000	     12.96733138	      5.88586971	      4.58227680	     -0.33107970	      0.92677685	     -0.29151341	    -22.80924034	     -6.18754122	     -5.22909549	    -43.45957368	      5.76363059	     15.67013783	      0.00000000	      2.30672622	      8.86626641	     10.74614092	    -16.22563284	     10.43287953	     -3.09379618	      0.00000000	    -28.09932955	     -5.66664500	     -0.59921100
      4.46000000	     12.85744735	      6.20340285	      4.34628774	     -0.32440250	      0.92715448	     -0.29220322	    -21.98650527	     -6.76715465	     -5.23140026	    -45.08254585	      4.91561386	     15.09231502	      0.00000000	      1.92593437	      9.24366423	     10.70496869	    -16.19548088	     10.63087592	     -3.19804709	      0.00000000	    -27.93094465	     -6.07472007	     -0.51318026
      4.46500000	     12.73196714	      6.48040355	      4.07740744	     -0.31772335	      0.92756933	     -0.29281270	    -21.11041045	     -7.31247970	     -5.17051346	    -46.67688627	      4.11096028	     14.44384580	      0.00000000	      1.54103574	      9.56957876	     10.62864612	    -16.10088061	     10.82246790	     -3.27474145	      0.00000000	    -27.72821854	     -6.45691271	     -0.37579515
      4.47000000	     12.64872195	      6.74702887	      3.84889835	     -0.31114006	      0.92801848	     -0.29343684	    -20.26632513	     -7.81823738	     -5.13837915	    -48.23432015	      3.44856906	     13.65979861	      0.00000000	      1.10309254	      9.88117106	     10.59681153	    -15.97833748	     11.04662520	     -3.36374403	      0.00000000	    -27.59002026	     -6.80057774	     -0.30142613
      4.47500000	     12.57316083	      6.98181847	      3.62020503	     -0.30455958	      0.92852198	     -0.29402779	    -19.41129496	     -8.28105470	     -5.08133789	    -49.74202144	      2.85765471	     12.80967893	      0.00000000	      0.63507792	     10.15220537	     10.56257882	    -15.79770215	     11.26319563	     -3.42997151	      0.00000000	    -27.45240027	     -7.11048403	     -0.21682556
